{
  "source": "C:\\Users\\Peter\\Desktop\\stuff\\MIUN\\quantitative_research\\video_compression\\videos\\BVI-HD\\BVI-HD_CDVL_videos\\ORIG\\Diver_1920x1080_30fps.mp4",
  "output": "C:\\Users\\Peter\\Desktop\\stuff\\MIUN\\quantitative_research\\video_compression\\compressed_videos\\BVI-HD\\h264\\2\\Diver_1920x1080_30fps_h264.mp4",
  "codec": "h264",
  "ok": "Input #0, mov,mp4,m4a,3gp,3g2,mj2, from 'C:\\Users\\Peter\\Desktop\\stuff\\MIUN\\quantitative_research\\video_compression\\videos\\BVI-HD\\BVI-HD_CDVL_videos\\ORIG\\Diver_1920x1080_30fps.mp4':\n  Metadata:\n    major_brand     : isom\n    minor_version   : 512\n    compatible_brands: isomiso2avc1mp41\n    encoder         : Lavf54.28.101\n  Duration: 00:00:05.00, start: 0.000000, bitrate: 196798 kb/s\n  Stream #0:0[0x1](und): Video: h264 (High 4:4:4 Predictive) (avc1 / 0x31637661), yuv420p(progressive), 1920x1080, 196794 kb/s, 30 fps, 30 tbr, 30 tbn (default)\n    Metadata:\n      handler_name    : VideoHandler\n      vendor_id       : [0][0][0][0]\n[out#0/mp4 @ 0000019434399cc0] Codec AVOption b:a (set bitrate (in bits/s)) has not been used for any stream. The most likely reason is either wrong type (e.g. a video option with no video streams) or that it is a private option of some decoder which was not actually used for any stream.\nStream mapping:\n  Stream #0:0 -> #0:0 (h264 (native) -> h264 (libx264))\nPress [q] to stop, [?] for help\n[libx264 @ 000001943439df00] using cpu capabilities: MMX2 SSE2Fast SSSE3 SSE4.2 AVX FMA3 BMI2 AVX2\n[libx264 @ 000001943439df00] profile High, level 5.0, 4:2:0, 8-bit\n[libx264 @ 000001943439df00] 264 - core 165 r3222 b35605a - H.264/MPEG-4 AVC codec - Copyleft 2003-2025 - http://www.videolan.org/x264.html - options: cabac=1 ref=5 deblock=1:0:0 analyse=0x3:0x113 me=hex subme=8 psy=1 psy_rd=1.00:0.00 mixed_ref=1 me_range=16 chroma_me=1 trellis=2 8x8dct=1 cqm=0 deadzone=21,11 fast_pskip=1 chroma_qp_offset=-2 threads=18 lookahead_threads=3 sliced_threads=0 nr=0 decimate=1 interlaced=0 bluray_compat=0 constrained_intra=0 bframes=3 b_pyramid=2 b_adapt=1 b_bias=0 direct=3 weightb=1 open_gop=0 weightp=2 keyint=250 keyint_min=25 scenecut=40 intra_refresh=0 rc_lookahead=50 rc=cbr mbtree=1 bitrate=2000 ratetol=1.0 qcomp=0.60 qpmin=0 qpmax=69 qpstep=4 vbv_maxrate=2000 vbv_bufsize=2000 nal_hrd=none filler=0 ip_ratio=1.40 aq=1:1.00\nOutput #0, mp4, to 'C:\\Users\\Peter\\Desktop\\stuff\\MIUN\\quantitative_research\\video_compression\\compressed_videos\\BVI-HD\\h264\\2\\Diver_1920x1080_30fps_h264.mp4':\n  Metadata:\n    major_brand     : isom\n    minor_version   : 512\n    compatible_brands: isomiso2avc1mp41\n    encoder         : Lavf62.3.100\n  Stream #0:0(und): Video: h264 (avc1 / 0x31637661), yuv420p(tv, progressive), 1920x1080, q=2-31, 2000 kb/s, 30 fps, 15360 tbn (default)\n    Metadata:\n      encoder         : Lavc62.11.100 libx264\n      handler_name    : VideoHandler\n      vendor_id       : [0][0][0][0]\n    Side data:\n      cpb: bitrate max/min/avg: 2000000/0/2000000 buffer size: 2000000 vbv_delay: N/A\nframe=    0 fps=0.0 q=0.0 size=       0KiB time=N/A bitrate=N/A speed=N/A elapsed=0:00:00.51    \nframe=    0 fps=0.0 q=0.0 size=       0KiB time=N/A bitrate=N/A speed=N/A elapsed=0:00:01.09    \nframe=    0 fps=0.0 q=0.0 size=       0KiB time=N/A bitrate=N/A speed=N/A elapsed=0:00:01.67    \nframe=   16 fps=7.0 q=33.0 size=       0KiB time=00:00:00.46 bitrate=   0.8kbits/s speed=0.205x elapsed=0:00:02.27    \nframe=   37 fps= 13 q=33.0 size=       0KiB time=00:00:01.06 bitrate=   0.4kbits/s speed=0.374x elapsed=0:00:02.85    \nframe=   57 fps= 16 q=34.0 size=     256KiB time=00:00:01.80 bitrate=1165.3kbits/s speed=0.518x elapsed=0:00:03.47    \nframe=   81 fps= 20 q=33.0 size=     256KiB time=00:00:02.60 bitrate= 806.7kbits/s speed=0.635x elapsed=0:00:04.09    \nframe=  110 fps= 24 q=34.0 size=     512KiB time=00:00:03.56 bitrate=1176.1kbits/s speed=0.763x elapsed=0:00:04.67    \nframe=  141 fps= 27 q=-1.0 size=     768KiB time=00:00:04.63 bitrate=1358.0kbits/s speed=0.892x elapsed=0:00:05.19    \n[mp4 @ 000001943439c440] Starting second pass: moving the moov atom to the beginning of the file\n[out#0/mp4 @ 0000019434399cc0] video:1077KiB audio:0KiB subtitle:0KiB other streams:0KiB global headers:0KiB muxing overhead: 0.242462%\nframe=  150 fps= 28 q=-1.0 Lsize=    1080KiB time=00:00:04.93 bitrate=1793.4kbits/s speed=0.921x elapsed=0:00:05.35    \n[libx264 @ 000001943439df00] frame I:1     Avg QP:30.55  size: 10796\n[libx264 @ 000001943439df00] frame P:38    Avg QP:29.75  size: 13328\n[libx264 @ 000001943439df00] frame B:111   Avg QP:32.17  size:  5273\n[libx264 @ 000001943439df00] consecutive B-frames:  1.3%  0.0%  0.0% 98.7%\n[libx264 @ 000001943439df00] mb I  I16..4: 79.0% 20.2%  0.8%\n[libx264 @ 000001943439df00] mb P  I16..4:  4.0%  4.9%  0.2%  P16..4: 41.1%  3.1%  3.3%  0.0%  0.0%    skip:43.4%\n[libx264 @ 000001943439df00] mb B  I16..4:  0.1%  0.4%  0.0%  B16..8: 36.5%  1.5%  0.1%  direct: 0.5%  skip:60.8%  L0:41.7% L1:57.3% BI: 0.9%\n[libx264 @ 000001943439df00] 8x8 transform intra:50.6% inter:88.6%\n[libx264 @ 000001943439df00] direct mvs  spatial:91.0% temporal:9.0%\n[libx264 @ 000001943439df00] coded y,uvDC,uvAC intra: 26.1% 26.5% 1.0% inter: 3.1% 6.9% 0.0%\n[libx264 @ 000001943439df00] i16 v,h,dc,p: 12% 31%  8% 50%\n[libx264 @ 000001943439df00] i8 v,h,dc,ddl,ddr,vr,hd,vl,hu:  7%  7% 12%  9% 15% 11% 17%  9% 14%\n[libx264 @ 000001943439df00] i4 v,h,dc,ddl,ddr,vr,hd,vl,hu:  7%  7% 14%  7% 14% 11% 14%  9% 17%\n[libx264 @ 000001943439df00] i8c dc,h,v,p: 58% 34%  6%  2%\n[libx264 @ 000001943439df00] Weighted P-Frames: Y:7.9% UV:0.0%\n[libx264 @ 000001943439df00] ref P L0: 50.0%  8.5% 26.5%  7.3%  7.5%  0.1%\n[libx264 @ 000001943439df00] ref B L0: 79.8% 14.1%  5.0%  1.1%\n[libx264 @ 000001943439df00] ref B L1: 93.9%  6.1%\n[libx264 @ 000001943439df00] kb/s:1764.00\n",
  "seconds": 5.733342885971069,
  "probe_out": {}
}